ply
format ascii 1.0
comment VCGLIB generated
element vertex 266
property float x
property float y
property float z
element face 528
property list uchar int vertex_indices
end_header
0 -200 0 
0 200 0 
51.7638 -193.185 0 
50 -193.185 -13.3975 
44.8288 -193.185 -25.8819 
36.6025 -193.185 -36.6025 
25.8819 -193.185 -44.8288 
13.3975 -193.185 -50 
0 -193.185 -51.7638 
-13.3975 -193.185 -50 
-25.8819 -193.185 -44.8288 
-36.6025 -193.185 -36.6025 
-44.8288 -193.185 -25.8819 
-50 -193.185 -13.3975 
-51.7638 -193.185 0 
-50 -193.185 13.3975 
-44.8288 -193.185 25.8819 
-36.6025 -193.185 36.6025 
-25.8819 -193.185 44.8288 
-13.3975 -193.185 50 
0 -193.185 51.7638 
13.3975 -193.185 50 
25.8819 -193.185 44.8288 
36.6025 -193.185 36.6025 
44.8288 -193.185 25.8819 
50 -193.185 13.3975 
100 -173.205 0 
96.5926 -173.205 -25.8819 
86.6025 -173.205 -50 
70.7107 -173.205 -70.7107 
50 -173.205 -86.6025 
25.8819 -173.205 -96.5926 
0 -173.205 -100 
-25.8819 -173.205 -96.5926 
-50 -173.205 -86.6025 
-70.7107 -173.205 -70.7107 
-86.6025 -173.205 -50 
-96.5926 -173.205 -25.8819 
-100 -173.205 0 
-96.5926 -173.205 25.8819 
-86.6025 -173.205 50 
-70.7107 -173.205 70.7107 
-50 -173.205 86.6025 
-25.8819 -173.205 96.5926 
0 -173.205 100 
25.8819 -173.205 96.5926 
50 -173.205 86.6025 
70.7107 -173.205 70.7107 
86.6025 -173.205 50 
96.5926 -173.205 25.8819 
141.421 -141.421 0 
136.603 -141.421 -36.6025 
122.474 -141.421 -70.7107 
100 -141.421 -100 
70.7107 -141.421 -122.474 
36.6025 -141.421 -136.603 
0 -141.421 -141.421 
-36.6025 -141.421 -136.603 
-70.7107 -141.421 -122.474 
-100 -141.421 -100 
-122.474 -141.421 -70.7107 
-136.603 -141.421 -36.6025 
-141.421 -141.421 0 
-136.603 -141.421 36.6025 
-122.474 -141.421 70.7107 
-100 -141.421 100 
-70.7107 -141.421 122.474 
-36.6025 -141.421 136.603 
0 -141.421 141.421 
36.6025 -141.421 136.603 
70.7107 -141.421 122.474 
100 -141.421 100 
122.474 -141.421 70.7107 
136.603 -141.421 36.6025 
173.205 -100 0 
167.303 -100 -44.8288 
150 -100 -86.6025 
122.474 -100 -122.474 
86.6025 -100 -150 
44.8288 -100 -167.303 
0 -100 -173.205 
-44.8288 -100 -167.303 
-86.6025 -100 -150 
-122.474 -100 -122.474 
-150 -100 -86.6025 
-167.303 -100 -44.8288 
-173.205 -100 0 
-167.303 -100 44.8288 
-150 -100 86.6025 
-122.474 -100 122.474 
-86.6025 -100 150 
-44.8288 -100 167.303 
0 -100 173.205 
44.8288 -100 167.303 
86.6025 -100 150 
122.474 -100 122.474 
150 -100 86.6025 
167.303 -100 44.8288 
193.185 -51.7638 0 
186.603 -51.7638 -50 
167.303 -51.7638 -96.5926 
136.603 -51.7638 -136.603 
96.5926 -51.7638 -167.303 
50 -51.7638 -186.603 
0 -51.7638 -193.185 
-50 -51.7638 -186.603 
-96.5926 -51.7638 -167.303 
-136.603 -51.7638 -136.603 
-167.303 -51.7638 -96.5926 
-186.603 -51.7638 -50 
-193.185 -51.7638 0 
-186.603 -51.7638 50 
-167.303 -51.7638 96.5926 
-136.603 -51.7638 136.603 
-96.5926 -51.7638 167.303 
-50 -51.7638 186.603 
0 -51.7638 193.185 
50 -51.7638 186.603 
96.5926 -51.7638 167.303 
136.603 -51.7638 136.603 
167.303 -51.7638 96.5926 
186.603 -51.7638 50 
200 0 0 
193.185 0 -51.7638 
173.205 0 -100 
141.421 0 -141.421 
100 0 -173.205 
51.7638 0 -193.185 
0 0 -200 
-51.7638 0 -193.185 
-100 0 -173.205 
-141.421 0 -141.421 
-173.205 0 -100 
-193.185 0 -51.7638 
-200 0 0 
-193.185 0 51.7638 
-173.205 0 100 
-141.421 0 141.421 
-100 0 173.205 
-51.7638 0 193.185 
0 0 200 
51.7638 0 193.185 
100 0 173.205 
141.421 0 141.421 
173.205 0 100 
193.185 0 51.7638 
193.185 51.7638 0 
186.603 51.7638 -50 
167.303 51.7638 -96.5926 
136.603 51.7638 -136.603 
96.5926 51.7638 -167.303 
50 51.7638 -186.603 
0 51.7638 -193.185 
-50 51.7638 -186.603 
-96.5926 51.7638 -167.303 
-136.603 51.7638 -136.603 
-167.303 51.7638 -96.5926 
-186.603 51.7638 -50 
-193.185 51.7638 0 
-186.603 51.7638 50 
-167.303 51.7638 96.5926 
-136.603 51.7638 136.603 
-96.5926 51.7638 167.303 
-50 51.7638 186.603 
0 51.7638 193.185 
50 51.7638 186.603 
96.5926 51.7638 167.303 
136.603 51.7638 136.603 
167.303 51.7638 96.5926 
186.603 51.7638 50 
173.205 100 0 
167.303 100 -44.8288 
150 100 -86.6025 
122.474 100 -122.474 
86.6025 100 -150 
44.8288 100 -167.303 
0 100 -173.205 
-44.8288 100 -167.303 
-86.6025 100 -150 
-122.474 100 -122.474 
-150 100 -86.6025 
-167.303 100 -44.8288 
-173.205 100 0 
-167.303 100 44.8288 
-150 100 86.6025 
-122.474 100 122.474 
-86.6025 100 150 
-44.8288 100 167.303 
0 100 173.205 
44.8288 100 167.303 
86.6025 100 150 
122.474 100 122.474 
150 100 86.6025 
167.303 100 44.8288 
141.421 141.421 0 
136.603 141.421 -36.6025 
122.474 141.421 -70.7107 
100 141.421 -100 
70.7107 141.421 -122.474 
36.6025 141.421 -136.603 
0 141.421 -141.421 
-36.6025 141.421 -136.603 
-70.7107 141.421 -122.474 
-100 141.421 -100 
-122.474 141.421 -70.7107 
-136.603 141.421 -36.6025 
-141.421 141.421 0 
-136.603 141.421 36.6025 
-122.474 141.421 70.7107 
-100 141.421 100 
-70.7107 141.421 122.474 
-36.6025 141.421 136.603 
0 141.421 141.421 
36.6025 141.421 136.603 
70.7107 141.421 122.474 
100 141.421 100 
122.474 141.421 70.7107 
136.603 141.421 36.6025 
100 173.205 0 
96.5926 173.205 -25.8819 
86.6025 173.205 -50 
70.7107 173.205 -70.7107 
50 173.205 -86.6025 
25.8819 173.205 -96.5926 
0 173.205 -100 
-25.8819 173.205 -96.5926 
-50 173.205 -86.6025 
-70.7107 173.205 -70.7107 
-86.6025 173.205 -50 
-96.5926 173.205 -25.8819 
-100 173.205 0 
-96.5926 173.205 25.8819 
-86.6025 173.205 50 
-70.7107 173.205 70.7107 
-50 173.205 86.6025 
-25.8819 173.205 96.5926 
0 173.205 100 
25.8819 173.205 96.5926 
50 173.205 86.6025 
70.7107 173.205 70.7107 
86.6025 173.205 50 
96.5926 173.205 25.8819 
51.7638 193.185 0 
50 193.185 -13.3975 
44.8288 193.185 -25.8819 
36.6025 193.185 -36.6025 
25.8819 193.185 -44.8288 
13.3975 193.185 -50 
0 193.185 -51.7638 
-13.3975 193.185 -50 
-25.8819 193.185 -44.8288 
-36.6025 193.185 -36.6025 
-44.8288 193.185 -25.8819 
-50 193.185 -13.3975 
-51.7638 193.185 0 
-50 193.185 13.3975 
-44.8288 193.185 25.8819 
-36.6025 193.185 36.6025 
-25.8819 193.185 44.8288 
-13.3975 193.185 50 
0 193.185 51.7638 
13.3975 193.185 50 
25.8819 193.185 44.8288 
36.6025 193.185 36.6025 
44.8288 193.185 25.8819 
50 193.185 13.3975 
3 27 26 2 
3 28 27 3 
3 29 28 4 
3 30 29 5 
3 31 30 6 
3 32 31 7 
3 33 32 8 
3 34 33 9 
3 35 34 10 
3 36 35 11 
3 37 36 12 
3 38 37 13 
3 39 38 14 
3 40 39 15 
3 41 40 16 
3 42 41 17 
3 43 42 18 
3 44 43 19 
3 45 44 20 
3 46 45 21 
3 47 46 22 
3 48 47 23 
3 49 48 24 
3 26 49 25 
3 51 50 26 
3 52 51 27 
3 53 52 28 
3 54 53 29 
3 55 54 30 
3 56 55 31 
3 57 56 32 
3 58 57 33 
3 59 58 34 
3 60 59 35 
3 61 60 36 
3 62 61 37 
3 63 62 38 
3 64 63 39 
3 65 64 40 
3 66 65 41 
3 67 66 42 
3 68 67 43 
3 69 68 44 
3 70 69 45 
3 71 70 46 
3 72 71 47 
3 73 72 48 
3 50 73 49 
3 75 74 50 
3 76 75 51 
3 77 76 52 
3 78 77 53 
3 79 78 54 
3 80 79 55 
3 81 80 56 
3 82 81 57 
3 83 82 58 
3 84 83 59 
3 85 84 60 
3 86 85 61 
3 87 86 62 
3 88 87 63 
3 89 88 64 
3 90 89 65 
3 91 90 66 
3 92 91 67 
3 93 92 68 
3 94 93 69 
3 95 94 70 
3 96 95 71 
3 97 96 72 
3 74 97 73 
3 99 98 74 
3 100 99 75 
3 101 100 76 
3 102 101 77 
3 103 102 78 
3 104 103 79 
3 105 104 80 
3 106 105 81 
3 107 106 82 
3 108 107 83 
3 109 108 84 
3 110 109 85 
3 111 110 86 
3 112 111 87 
3 113 112 88 
3 114 113 89 
3 115 114 90 
3 116 115 91 
3 117 116 92 
3 118 117 93 
3 119 118 94 
3 120 119 95 
3 121 120 96 
3 98 121 97 
3 123 122 98 
3 124 123 99 
3 125 124 100 
3 126 125 101 
3 127 126 102 
3 128 127 103 
3 129 128 104 
3 130 129 105 
3 131 130 106 
3 132 131 107 
3 133 132 108 
3 134 133 109 
3 135 134 110 
3 136 135 111 
3 137 136 112 
3 138 137 113 
3 139 138 114 
3 140 139 115 
3 141 140 116 
3 142 141 117 
3 143 142 118 
3 144 143 119 
3 145 144 120 
3 122 145 121 
3 147 146 122 
3 148 147 123 
3 149 148 124 
3 150 149 125 
3 151 150 126 
3 152 151 127 
3 153 152 128 
3 154 153 129 
3 155 154 130 
3 156 155 131 
3 157 156 132 
3 158 157 133 
3 159 158 134 
3 160 159 135 
3 161 160 136 
3 162 161 137 
3 163 162 138 
3 164 163 139 
3 165 164 140 
3 166 165 141 
3 167 166 142 
3 168 167 143 
3 169 168 144 
3 146 169 145 
3 171 170 146 
3 172 171 147 
3 173 172 148 
3 174 173 149 
3 175 174 150 
3 176 175 151 
3 177 176 152 
3 178 177 153 
3 179 178 154 
3 180 179 155 
3 181 180 156 
3 182 181 157 
3 183 182 158 
3 184 183 159 
3 185 184 160 
3 186 185 161 
3 187 186 162 
3 188 187 163 
3 189 188 164 
3 190 189 165 
3 191 190 166 
3 192 191 167 
3 193 192 168 
3 170 193 169 
3 195 194 170 
3 196 195 171 
3 197 196 172 
3 198 197 173 
3 199 198 174 
3 200 199 175 
3 201 200 176 
3 202 201 177 
3 203 202 178 
3 204 203 179 
3 205 204 180 
3 206 205 181 
3 207 206 182 
3 208 207 183 
3 209 208 184 
3 210 209 185 
3 211 210 186 
3 212 211 187 
3 213 212 188 
3 214 213 189 
3 215 214 190 
3 216 215 191 
3 217 216 192 
3 194 217 193 
3 219 218 194 
3 220 219 195 
3 221 220 196 
3 222 221 197 
3 223 222 198 
3 224 223 199 
3 225 224 200 
3 226 225 201 
3 227 226 202 
3 228 227 203 
3 229 228 204 
3 230 229 205 
3 231 230 206 
3 232 231 207 
3 233 232 208 
3 234 233 209 
3 235 234 210 
3 236 235 211 
3 237 236 212 
3 238 237 213 
3 239 238 214 
3 240 239 215 
3 241 240 216 
3 218 241 217 
3 243 242 218 
3 244 243 219 
3 245 244 220 
3 246 245 221 
3 247 246 222 
3 248 247 223 
3 249 248 224 
3 250 249 225 
3 251 250 226 
3 252 251 227 
3 253 252 228 
3 254 253 229 
3 255 254 230 
3 256 255 231 
3 257 256 232 
3 258 257 233 
3 259 258 234 
3 260 259 235 
3 261 260 236 
3 262 261 237 
3 263 262 238 
3 264 263 239 
3 265 264 240 
3 242 265 241 
3 3 2 0 
3 1 242 243 
3 4 3 0 
3 1 243 244 
3 5 4 0 
3 1 244 245 
3 6 5 0 
3 1 245 246 
3 7 6 0 
3 1 246 247 
3 8 7 0 
3 1 247 248 
3 9 8 0 
3 1 248 249 
3 10 9 0 
3 1 249 250 
3 11 10 0 
3 1 250 251 
3 12 11 0 
3 1 251 252 
3 13 12 0 
3 1 252 253 
3 14 13 0 
3 1 253 254 
3 15 14 0 
3 1 254 255 
3 16 15 0 
3 1 255 256 
3 17 16 0 
3 1 256 257 
3 18 17 0 
3 1 257 258 
3 19 18 0 
3 1 258 259 
3 20 19 0 
3 1 259 260 
3 21 20 0 
3 1 260 261 
3 22 21 0 
3 1 261 262 
3 23 22 0 
3 1 262 263 
3 24 23 0 
3 1 263 264 
3 25 24 0 
3 1 264 265 
3 2 25 0 
3 1 265 242 
3 3 27 2 
3 4 28 3 
3 5 29 4 
3 6 30 5 
3 7 31 6 
3 8 32 7 
3 9 33 8 
3 10 34 9 
3 11 35 10 
3 12 36 11 
3 13 37 12 
3 14 38 13 
3 15 39 14 
3 16 40 15 
3 17 41 16 
3 18 42 17 
3 19 43 18 
3 20 44 19 
3 21 45 20 
3 22 46 21 
3 23 47 22 
3 24 48 23 
3 25 49 24 
3 2 26 25 
3 27 51 26 
3 28 52 27 
3 29 53 28 
3 30 54 29 
3 31 55 30 
3 32 56 31 
3 33 57 32 
3 34 58 33 
3 35 59 34 
3 36 60 35 
3 37 61 36 
3 38 62 37 
3 39 63 38 
3 40 64 39 
3 41 65 40 
3 42 66 41 
3 43 67 42 
3 44 68 43 
3 45 69 44 
3 46 70 45 
3 47 71 46 
3 48 72 47 
3 49 73 48 
3 26 50 49 
3 51 75 50 
3 52 76 51 
3 53 77 52 
3 54 78 53 
3 55 79 54 
3 56 80 55 
3 57 81 56 
3 58 82 57 
3 59 83 58 
3 60 84 59 
3 61 85 60 
3 62 86 61 
3 63 87 62 
3 64 88 63 
3 65 89 64 
3 66 90 65 
3 67 91 66 
3 68 92 67 
3 69 93 68 
3 70 94 69 
3 71 95 70 
3 72 96 71 
3 73 97 72 
3 50 74 73 
3 75 99 74 
3 76 100 75 
3 77 101 76 
3 78 102 77 
3 79 103 78 
3 80 104 79 
3 81 105 80 
3 82 106 81 
3 83 107 82 
3 84 108 83 
3 85 109 84 
3 86 110 85 
3 87 111 86 
3 88 112 87 
3 89 113 88 
3 90 114 89 
3 91 115 90 
3 92 116 91 
3 93 117 92 
3 94 118 93 
3 95 119 94 
3 96 120 95 
3 97 121 96 
3 74 98 97 
3 99 123 98 
3 100 124 99 
3 101 125 100 
3 102 126 101 
3 103 127 102 
3 104 128 103 
3 105 129 104 
3 106 130 105 
3 107 131 106 
3 108 132 107 
3 109 133 108 
3 110 134 109 
3 111 135 110 
3 112 136 111 
3 113 137 112 
3 114 138 113 
3 115 139 114 
3 116 140 115 
3 117 141 116 
3 118 142 117 
3 119 143 118 
3 120 144 119 
3 121 145 120 
3 98 122 121 
3 123 147 122 
3 124 148 123 
3 125 149 124 
3 126 150 125 
3 127 151 126 
3 128 152 127 
3 129 153 128 
3 130 154 129 
3 131 155 130 
3 132 156 131 
3 133 157 132 
3 134 158 133 
3 135 159 134 
3 136 160 135 
3 137 161 136 
3 138 162 137 
3 139 163 138 
3 140 164 139 
3 141 165 140 
3 142 166 141 
3 143 167 142 
3 144 168 143 
3 145 169 144 
3 122 146 145 
3 147 171 146 
3 148 172 147 
3 149 173 148 
3 150 174 149 
3 151 175 150 
3 152 176 151 
3 153 177 152 
3 154 178 153 
3 155 179 154 
3 156 180 155 
3 157 181 156 
3 158 182 157 
3 159 183 158 
3 160 184 159 
3 161 185 160 
3 162 186 161 
3 163 187 162 
3 164 188 163 
3 165 189 164 
3 166 190 165 
3 167 191 166 
3 168 192 167 
3 169 193 168 
3 146 170 169 
3 171 195 170 
3 172 196 171 
3 173 197 172 
3 174 198 173 
3 175 199 174 
3 176 200 175 
3 177 201 176 
3 178 202 177 
3 179 203 178 
3 180 204 179 
3 181 205 180 
3 182 206 181 
3 183 207 182 
3 184 208 183 
3 185 209 184 
3 186 210 185 
3 187 211 186 
3 188 212 187 
3 189 213 188 
3 190 214 189 
3 191 215 190 
3 192 216 191 
3 193 217 192 
3 170 194 193 
3 195 219 194 
3 196 220 195 
3 197 221 196 
3 198 222 197 
3 199 223 198 
3 200 224 199 
3 201 225 200 
3 202 226 201 
3 203 227 202 
3 204 228 203 
3 205 229 204 
3 206 230 205 
3 207 231 206 
3 208 232 207 
3 209 233 208 
3 210 234 209 
3 211 235 210 
3 212 236 211 
3 213 237 212 
3 214 238 213 
3 215 239 214 
3 216 240 215 
3 217 241 216 
3 194 218 217 
3 219 243 218 
3 220 244 219 
3 221 245 220 
3 222 246 221 
3 223 247 222 
3 224 248 223 
3 225 249 224 
3 226 250 225 
3 227 251 226 
3 228 252 227 
3 229 253 228 
3 230 254 229 
3 231 255 230 
3 232 256 231 
3 233 257 232 
3 234 258 233 
3 235 259 234 
3 236 260 235 
3 237 261 236 
3 238 262 237 
3 239 263 238 
3 240 264 239 
3 241 265 240 
3 218 242 241 
